<?xml version="1.0" standalone="no"?>
<!DOCTYPE svg PUBLIC "-//W3C//DTD SVG 20010904//EN"
 "http://www.w3.org/TR/2001/REC-SVG-20010904/DTD/svg10.dtd">
<svg version="1.0" xmlns="http://www.w3.org/2000/svg"
 width="398.000000pt" height="398.000000pt" viewBox="0 0 398.000000 398.000000"
 preserveAspectRatio="xMidYMid meet">
<metadata>
Created by potrace 1.14, written by Peter Selinger 2001-2017
</metadata>
<g transform="translate(0.000000,398.000000) scale(0.100000,-0.100000)"
fill="#000000" stroke="none">
<path d="M1965 3710 c-11 -4 -35 -36 -54 -71 -28 -52 -241 -447 -386 -714 -40
-74 -156 -289 -200 -370 -18 -33 -63 -116 -100 -185 -119 -220 -134 -249 -171
-317 -20 -38 -47 -86 -59 -108 -12 -22 -42 -76 -65 -120 -24 -44 -130 -242
-238 -440 -107 -198 -209 -387 -227 -420 -101 -188 -244 -450 -282 -519 -51
-92 -60 -121 -43 -141 11 -13 235 -15 1839 -15 1408 0 1830 3 1839 12 14 14
16 50 3 63 -4 6 -36 64 -71 130 -34 66 -66 125 -70 130 -4 6 -31 55 -60 110
-29 55 -109 204 -178 330 -69 127 -143 264 -165 305 -22 41 -66 122 -97 180
-31 58 -75 139 -97 180 -22 41 -94 174 -160 295 -66 121 -199 366 -295 545
-97 179 -184 341 -195 360 -11 19 -109 201 -218 403 -109 203 -206 372 -214
377 -9 4 -25 4 -36 0z m-31 -306 l-4 -86 -136 -237 c-75 -130 -140 -243 -145
-251 -5 -8 -63 -109 -129 -225 -66 -115 -127 -221 -135 -235 -8 -14 -36 -62
-62 -108 -46 -81 -47 -82 -60 -58 -12 23 8 64 328 655 188 347 342 631 344
631 1 0 1 -39 -1 -86z m146 -9 c24 -44 70 -129 103 -190 499 -916 530 -976
516 -1001 l-12 -24 -17 28 c-9 15 -156 270 -328 567 l-311 540 -3 78 c-4 66
-1 94 8 85 1 -2 21 -39 44 -83z m-198 -397 c-60 -112 -136 -259 -267 -513 -54
-104 -112 -217 -130 -250 -17 -33 -49 -93 -70 -132 -20 -40 -40 -73 -44 -73
-4 0 -15 14 -25 30 l-18 31 117 202 c65 111 129 222 143 247 14 25 90 156 169
293 79 136 149 260 156 274 11 26 12 26 15 5 2 -12 -19 -63 -46 -114z m733
-937 c-8 -17 -19 -31 -23 -31 -15 0 -562 1056 -562 1085 0 11 135 -216 301
-502 l300 -522 -16 -30z m-680 747 l-2 -93 -60 -105 c-34 -58 -69 -119 -79
-137 -11 -18 -66 -113 -122 -213 -57 -99 -108 -182 -113 -186 -5 -3 -14 7 -21
21 -10 23 -6 36 37 118 87 168 171 330 255 492 45 88 87 168 92 178 5 9 10 17
11 17 2 0 2 -42 2 -92z m133 20 c17 -35 66 -128 107 -208 264 -505 260 -496
244 -531 l-15 -32 -189 328 -188 328 -1 88 c-1 49 2 89 5 89 3 0 20 -28 37
-62z m-278 -603 c-78 -160 -144 -292 -146 -295 -3 -2 -9 2 -14 9 -5 10 24 76
91 205 55 105 123 237 152 294 28 56 53 97 55 89 1 -7 -61 -143 -138 -302z
m427 -33 c90 -176 122 -247 114 -255 -6 -6 -13 -9 -15 -6 -12 12 -286 587
-286 600 0 18 32 -39 187 -339z m-316 45 c-10 -9 -11 -8 -5 6 3 10 9 15 12 12
3 -3 0 -11 -7 -18z m-28 -62 c-3 -9 -8 -14 -10 -11 -3 3 -2 9 2 15 9 16 15 13
8 -4z m60 -375 c-1 -193 -3 -353 -6 -356 -2 -3 -22 26 -43 63 -21 37 -62 108
-91 156 -29 48 -53 93 -53 99 0 15 184 396 189 392 2 -2 4 -161 4 -354z m228
99 l67 -136 -94 -158 c-52 -87 -96 -160 -99 -163 -3 -3 -5 159 -5 359 l1 364
31 -65 c18 -36 62 -126 99 -201z m-946 210 c5 -15 -22 -70 -102 -209 -126
-221 -138 -238 -145 -218 -6 14 221 447 234 448 4 0 10 -9 13 -21z m628 6 c-3
-9 -8 -14 -10 -11 -3 3 -2 9 2 15 9 16 15 13 8 -4z m1024 -175 c25 -47 58
-108 74 -136 24 -42 27 -54 16 -62 -10 -9 -35 26 -115 167 -56 98 -102 183
-102 188 0 5 5 14 12 21 12 12 14 9 115 -178z m-1347 67 c0 -16 -61 -117 -70
-117 -23 0 -19 43 11 101 29 58 32 62 45 44 8 -10 14 -23 14 -28z m648 18 c-3
-3 -9 2 -12 12 -6 14 -5 15 5 6 7 -7 10 -15 7 -18z m338 -43 c21 -47 23 -61
14 -81 l-11 -24 -19 30 c-47 78 -53 95 -39 119 16 31 25 23 55 -44z m-1191
-43 c5 -13 -189 -387 -213 -411 -5 -5 -20 8 -35 28 l-26 37 27 47 c224 390
205 362 224 337 10 -12 20 -29 23 -38z m1481 -133 l92 -159 -26 -34 c-15 -18
-29 -33 -32 -33 -3 0 -47 79 -98 175 l-92 174 21 36 c20 33 23 35 32 18 6 -10
52 -90 103 -177z m-1026 156 c0 -5 -7 -17 -15 -28 -14 -18 -14 -17 -4 9 12 27
19 34 19 19z m-49 -99 c-11 -21 -20 -35 -21 -31 0 12 33 78 38 74 2 -2 -6 -21
-17 -43z m-115 3 c7 -17 -55 -138 -67 -131 -16 10 -10 38 19 92 28 54 39 63
48 39z m803 -45 c26 -51 28 -61 16 -77 -12 -18 -16 -14 -43 46 -27 61 -31 90
-11 90 5 0 22 -26 38 -59z m-1019 -11 c9 -17 7 -28 -8 -53 -11 -18 -29 -48
-40 -67 -11 -19 -49 -87 -86 -149 -36 -63 -66 -119 -66 -125 0 -6 -4 -6 -11 1
-8 8 18 66 93 212 56 110 104 201 105 201 1 0 7 -9 13 -20z m1284 -152 c79
-153 101 -209 77 -193 -6 3 -51 77 -101 165 -79 138 -90 162 -80 181 7 11 13
19 14 17 2 -1 42 -78 90 -170z m-1331 -118 c-55 -106 -104 -190 -109 -188 -5
1 -8 8 -8 14 2 16 208 373 213 368 2 -1 -41 -89 -96 -194z m1277 29 c53 -91
89 -164 84 -169 -5 -5 -47 65 -96 161 -49 93 -86 169 -84 169 2 0 45 -72 96
-161z m-977 136 c-3 -9 -8 -14 -10 -11 -3 3 -2 9 2 15 9 16 15 13 8 -4z m685
-10 c-3 -3 -9 2 -12 12 -6 14 -5 15 5 6 7 -7 10 -15 7 -18z m-421 -337 l22
-38 -72 0 -72 0 -73 124 -73 124 33 66 32 65 91 -152 c49 -84 100 -169 112
-189z m410 204 c-2 -4 -34 -60 -72 -124 l-70 -118 -68 0 c-39 0 -67 4 -65 9 2
6 50 91 108 190 l105 179 33 -64 c18 -36 31 -68 29 -72z m-891 -87 c-68 -141
-77 -155 -100 -155 -14 0 -26 3 -26 6 0 3 39 81 87 174 78 149 89 166 101 149
11 -16 3 -39 -62 -174z m1162 -1 c39 -78 68 -144 65 -148 -3 -3 -15 -6 -25 -6
-14 0 -36 37 -92 153 -60 126 -71 156 -63 175 l10 22 17 -27 c9 -16 49 -92 88
-169z m609 -144 c193 -356 199 -369 186 -355 -8 8 -155 261 -233 400 -12 22
-52 90 -87 152 -36 61 -62 117 -58 123 4 7 11 8 15 3 4 -4 84 -150 177 -323z
m-2442 -52 c-247 -430 -255 -437 -37 -33 74 138 149 276 166 308 22 41 32 53
38 43 5 -10 -50 -114 -167 -318z m2305 72 c62 -107 126 -220 143 -250 17 -30
43 -75 58 -100 l28 -45 -62 -3 c-34 -2 -63 1 -64 5 -2 4 -66 124 -143 267
l-139 259 27 38 c15 21 30 35 33 31 4 -4 57 -95 119 -202z m-636 154 c3 -8 2
-12 -4 -9 -6 3 -10 10 -10 16 0 14 7 11 14 -7z m-881 -9 c-3 -9 -8 -14 -10
-11 -3 3 -2 9 2 15 9 16 15 13 8 -4z m-496 -70 c-1 -6 -58 -115 -127 -242
-124 -230 -125 -231 -160 -235 -20 -2 -47 -1 -62 2 -26 5 -25 7 110 240 76
129 148 253 160 275 l24 39 29 -34 c16 -19 28 -40 26 -45z m1397 39 c3 -8 2
-12 -4 -9 -6 3 -10 10 -10 16 0 14 7 11 14 -7z m-790 -96 l28 -48 -81 0 -81 0
37 74 37 75 16 -27 c9 -15 29 -48 44 -74z m753 25 l30 -68 -38 -3 c-22 -2 -57
-2 -78 0 l-39 3 40 68 c22 37 44 67 47 67 4 0 21 -30 38 -67z m63 12 c0 -5 -5
-3 -10 5 -5 8 -10 20 -10 25 0 6 5 3 10 -5 5 -8 10 -19 10 -25z m-977 -10 c-3
-9 -8 -14 -10 -11 -3 3 -2 9 2 15 9 16 15 13 8 -4z m995 -30 c-3 -3 -9 2 -12
12 -6 14 -5 15 5 6 7 -7 10 -15 7 -18z m345 -15 c22 -36 6 -41 -17 -5 -18 27
-20 35 -8 35 4 0 16 -13 25 -30z m-1769 -143 c-35 -63 -41 -60 -8 4 14 28 27
49 30 47 2 -3 -7 -26 -22 -51z m120 44 c3 -5 -9 -36 -26 -69 -22 -42 -42 -65
-64 -76 l-33 -15 36 62 c58 99 63 107 73 107 5 0 11 -4 14 -9z m136 -1 c0 -5
-2 -10 -4 -10 -3 0 -8 5 -11 10 -3 6 -1 10 4 10 6 0 11 -4 11 -10z m434 -51
c20 -33 36 -61 36 -63 0 -1 -89 -2 -197 -2 -233 -1 -236 0 -197 78 l24 48 149
0 149 0 36 -61z m177 46 c1 -8 1 -24 1 -35 0 -71 -2 -81 -19 -78 -9 2 -34 31
-55 66 l-38 62 55 0 c42 0 55 -4 56 -15z m188 -22 c-70 -118 -89 -123 -89 -28
l0 65 56 0 56 0 -23 -37z m433 12 c9 -21 7 -30 -15 -63 l-25 -39 -171 0 -171
0 27 46 c14 25 31 54 37 64 10 15 29 17 159 17 147 0 147 0 159 -25z m291 -52
c25 -43 43 -80 41 -82 -11 -12 -58 38 -84 89 -34 68 -35 70 -16 70 8 0 34 -35
59 -77z m71 10 c20 -37 34 -68 33 -70 -4 -3 -77 121 -77 130 0 17 11 2 44 -60z
m-179 -3 c14 -27 25 -51 25 -54 0 -5 -58 -1 -63 5 -20 27 -24 58 -11 78 8 11
17 21 19 21 3 0 16 -22 30 -50z m-1471 -49 c-8 -8 -64 -10 -64 -2 0 3 7 17 16
30 l17 24 18 -24 c10 -13 16 -26 13 -28z m1706 -51 c6 -11 8 -20 6 -20 -3 0
-10 9 -16 20 -6 11 -8 20 -6 20 3 0 10 -9 16 -20z m-1740 -15 c0 -4 -7 -19
-15 -35 -15 -29 -17 -30 -90 -29 -41 1 -75 3 -75 5 0 2 26 17 58 33 50 26 122
41 122 26z m611 -22 c7 -16 15 -31 17 -35 2 -3 -79 -6 -180 -6 -193 0 -204 3
-229 50 -9 17 2 18 184 18 l194 0 14 -27z m619 21 c0 -3 -9 -19 -20 -34 l-21
-29 -159 0 -159 0 16 35 17 34 163 0 c90 0 163 -3 163 -6z m183 -23 c8 -17 12
-32 9 -35 -7 -8 -112 -8 -112 -1 0 3 10 19 22 35 29 39 62 39 81 1z m219 -6
l63 -35 -81 0 c-87 0 -80 -4 -112 63 -2 4 13 7 32 7 22 0 60 -13 98 -35z
m-1509 -9 c16 -24 16 -24 -18 -24 -32 0 -33 1 -23 24 6 13 14 24 18 24 4 0 15
-11 23 -24z m-235 -83 c-32 -2 -86 -2 -120 0 -35 2 -9 3 57 3 66 0 94 -1 63
-3z m260 0 c-21 -2 -55 -2 -75 0 -21 2 -4 4 37 4 41 0 58 -2 38 -4z m435 0
c-51 -2 -136 -2 -190 0 -54 1 -12 3 92 3 105 0 149 -2 98 -3z m490 0 c-46 -2
-120 -2 -165 0 -46 1 -9 3 82 3 91 0 128 -2 83 -3z m340 0 c-29 -2 -77 -2
-105 0 -29 2 -6 3 52 3 58 0 81 -1 53 -3z m330 0 c-35 -2 -91 -2 -125 0 -35 2
-7 3 62 3 69 0 97 -1 63 -3z m-2203 -99 c0 -4 -23 -51 -52 -104 l-52 -98 -90
-48 c-76 -42 -142 -64 -132 -44 9 15 150 258 162 278 13 20 23 22 89 22 41 0
75 -3 75 -6z m786 -81 c36 -49 70 -93 75 -98 5 -8 -126 -11 -422 -11 -236 0
-429 3 -429 6 0 3 21 47 47 97 l48 93 307 0 307 0 67 -87z m378 -5 c-1 -51 -2
-95 -3 -98 -1 -3 -40 -6 -89 -6 l-87 -1 -65 85 c-36 46 -69 91 -73 98 -7 12
19 14 155 14 l164 0 -2 -92z m366 87 c0 -7 -132 -185 -139 -186 -32 -8 -131
-3 -132 5 -1 13 -1 168 0 179 1 8 271 10 271 2z m833 -84 c26 -49 47 -93 47
-98 0 -5 -195 -9 -449 -9 -311 0 -448 3 -444 11 3 5 35 49 71 98 l64 87 332 0
332 0 47 -89z m274 -26 c36 -60 75 -129 88 -152 l25 -41 -30 4 c-16 3 -67 26
-113 52 l-84 46 -49 95 c-27 53 -51 99 -52 104 -2 4 31 7 74 5 l78 -3 63 -110z
m-1693 -180 c2 -7 -170 -10 -515 -10 -352 0 -515 3 -506 10 19 14 1015 14
1021 0z m216 -1 c0 -7 -15 -10 -42 -9 -57 4 -58 4 -58 13 0 4 23 8 50 8 31 0
50 -4 50 -12z m160 4 c0 -4 -6 -9 -12 -10 -36 -4 -44 -4 -52 0 -4 3 -3 8 3 11
15 10 61 9 61 -1z m1179 -3 c7 -7 -169 -10 -527 -9 -295 1 -539 2 -542 4 -3 1
3 5 13 8 29 12 1044 9 1056 -3z m-2949 -99 c0 -2 -7 -7 -16 -10 -8 -3 -12 -2
-9 4 6 10 25 14 25 6z m1498 -35 c18 -22 32 -42 32 -45 0 -3 -336 -6 -747 -6
l-748 0 80 45 80 44 636 1 636 0 31 -39z m113 26 c-1 -12 -15 -9 -19 4 -3 6 1
10 8 8 6 -3 11 -8 11 -12z m1594 -32 l80 -44 -768 -1 -768 0 32 45 32 45 656
0 656 0 80 -45z m140 35 c3 -6 -1 -7 -9 -4 -18 7 -21 14 -7 14 6 0 13 -4 16
-10z"/>
</g>
</svg>
